<svg width="512" height="512" viewBox="0 0 512 512" xmlns="http://www.w3.org/2000/svg">
    <rect width="100%" height="100%" fill="black" />
    <defs>
        <linearGradient id="rainbow" x1="0%" y1="0%" x2="100%" y2="100%">
            <stop offset="0%" stop-color="#ff0000" />
            <stop offset="16.6%" stop-color="#ff7f00" />
            <stop offset="33.3%" stop-color="#ffff00" />
            <stop offset="50%" stop-color="#00ff00" />
            <stop offset="66.6%" stop-color="#0000ff" />
            <stop offset="83.3%" stop-color="#4b0082" />
            <stop offset="100%" stop-color="#8b00ff" />
        </linearGradient>
    </defs>
    <path
        d="M 256 256
             A 25 25 0 0 1 306 256
             A 50 50 0 0 1 206 256
             A 75 75 0 0 1 356 256
             A 100 100 0 0 1 156 256
             A 125 125 0 0 1 406 256
             A 150 150 0 0 1 106 256
             A 175 175 0 0 1 456 256
             A 200 200 0 0 1 56 256"
        stroke="url(#rainbow)" stroke-width="16" fill="none" stroke-linecap="round"
        stroke-linejoin="round" />
</svg>