<svg width="512" height="512" viewBox="0 0 512 512" xmlns="http://www.w3.org/2000/svg">
    <rect width="100%" height="100%" fill="black" />
    <defs>
        <linearGradient id="g1" x1="0" y1="0" x2="1" y2="0">
            <stop offset="0%" stop-color="#ff0000" />
            <stop offset="100%" stop-color="#ff7f00" />
        </linearGradient>
        <linearGradient id="g2" x1="1" y1="0" x2="0" y2="0">
            <stop offset="0%" stop-color="#ff7f00" />
            <stop offset="100%" stop-color="#ffff00" />
        </linearGradient>
        <linearGradient id="g3" x1="0" y1="0" x2="1" y2="0">
            <stop offset="0%" stop-color="#ffff00" />
            <stop offset="100%" stop-color="#00ff00" />
        </linearGradient>
        <linearGradient id="g4" x1="1" y1="0" x2="0" y2="0">
            <stop offset="0%" stop-color="#00ff00" />
            <stop offset="100%" stop-color="#00ffff" />
        </linearGradient>
        <linearGradient id="g5" x1="0" y1="0" x2="1" y2="0">
            <stop offset="0%" stop-color="#00ffff" />
            <stop offset="100%" stop-color="#0000ff" />
        </linearGradient>
        <linearGradient id="g6" x1="1" y1="0" x2="0" y2="0">
            <stop offset="0%" stop-color="#0000ff" />
            <stop offset="100%" stop-color="#8b00ff" />
        </linearGradient>
        <linearGradient id="g7" x1="0" y1="0" x2="1" y2="0">
            <stop offset="0%" stop-color="#8b00ff" />
            <stop offset="100%" stop-color="#ff00ff" />
        </linearGradient>
        <linearGradient id="g8" x1="1" y1="0" x2="0" y2="0">
            <stop offset="0%" stop-color="#ff00ff" />
            <stop offset="100%" stop-color="#ff0000" />
        </linearGradient>
    </defs>
    <g fill="none" stroke-width="20" stroke-linecap="round">
        <path d="M 256 256 A 25 25 0 0 1 306 256" stroke="url(#g1)" />
        <path d="M 306 256 A 50 50 0 0 1 206 256" stroke="url(#g2)" />
        <path d="M 206 256 A 75 75 0 0 1 356 256" stroke="url(#g3)" />
        <path d="M 356 256 A 100 100 0 0 1 156 256" stroke="url(#g4)" />
        <path d="M 156 256 A 125 125 0 0 1 406 256" stroke="url(#g5)" />
        <path d="M 406 256 A 150 150 0 0 1 106 256" stroke="url(#g6)" />
        <path d="M 106 256 A 175 175 0 0 1 456 256" stroke="url(#g7)" />
        <path d="M 456 256 A 200 200 0 0 1 56 256" stroke="url(#g8)" />
    </g>
</svg>